<svg xmlns="http://www.w3.org/2000/svg" width="24" height="22" viewBox="0 0 24 22" fill="none">
<path d="M9.09038 18.2248C8.96746 17.9704 8.75329 17.9446 8.66663 17.9446C8.57996 17.9446 8.3658 17.9699 8.24913 18.2106L7.92955 18.8697C7.66413 19.4189 6.88664 19.3583 6.70122 18.7799L5.99997 16.6113L5.55789 17.9811C5.31248 18.7399 4.6254 19.25 3.84957 19.25H3.33332C2.96499 19.25 2.66666 18.9423 2.66666 18.5625C2.66666 18.1826 2.96499 17.875 3.33332 17.875H3.84957C4.05082 17.875 4.22915 17.7426 4.2929 17.5458L5.05081 15.198C5.18831 14.7765 5.56914 14.4929 5.99997 14.4929C6.43081 14.4929 6.81164 14.7761 6.94872 15.198L7.52705 16.9872C8.34996 16.2916 9.77954 16.5705 10.277 17.5957C10.3558 17.7581 10.5058 17.8514 10.667 17.8647V14.3361L16.0003 8.87518V6.87498H10.3333C9.78329 6.87498 9.33329 6.41092 9.33329 5.84373V-1.52588e-05H0.999996C0.445831 -1.52588e-05 0 0.45975 0 1.03123V20.9687C0 21.5402 0.445831 22 0.999996 22H14.9999C15.5541 22 15.9999 21.5402 15.9999 20.9687V19.25L10.6666 19.2453C9.99496 19.2319 9.39246 18.8465 9.09038 18.2248ZM15.9999 5.23788C15.9999 4.96717 15.8958 4.70506 15.7083 4.5117L11.6291 0.300766C11.4416 0.107407 11.1875 -1.52588e-05 10.9208 -1.52588e-05H10.6666V5.49998H15.9999V5.23788ZM11.9999 14.9084V17.875H14.8745L21.6112 10.8805L18.7828 7.96381L11.9999 14.9084ZM23.6891 7.18995L22.3612 5.82053C21.947 5.39342 21.2749 5.39342 20.8607 5.82053L19.7253 6.99143L22.5537 9.90815L23.6891 8.73725C24.1036 8.31014 24.1036 7.61705 23.6891 7.18995Z" fill="#ffffff"/>
</svg>