<svg width="910" height="461" viewBox="0 0 910 461" fill="none" xmlns="http://www.w3.org/2000/svg">
<path d="M725.492 -306.987C805.774 -274.236 877.078 -209.261 904.543 -130.023C932.536 -50.7853 916.69 42.7153 902.43 136.216C887.641 229.188 874.437 321.632 821.619 376.042C768.274 430.452 675.315 446.299 590.808 455.28C506.3 463.732 430.243 464.788 359.468 444.715C288.693 425.169 223.199 384.494 161.403 331.141C99.0787 277.259 40.4515 210.699 14.571 130.405C-10.7813 50.1108 -3.38691 -43.918 39.3951 -114.704C82.7053 -185.489 161.931 -233.032 239.045 -266.84C316.686 -301.177 392.743 -321.778 475.138 -331.815C557.533 -341.324 645.738 -340.267 725.492 -306.987Z" fill="#038FC1"/>
</svg>
