<svg xmlns="http://www.w3.org/2000/svg" width="164" height="93" viewBox="0 0 164 93" fill="none">
<g clip-path="url(#clip0_1706_2356)">
<path d="M11.2109 2.53001C10.5233 1.4033 9.43519 0.578183 8.16474 0.22023C6.89428 -0.137723 5.53552 -0.00206029 4.3609 0.599991C2.2509 1.77999 1.1909 5.03999 2.7309 7.06999C3.10261 7.62988 3.62168 8.07626 4.2309 8.35997C4.92248 9.13527 5.85465 9.65546 6.87763 9.83684C7.9006 10.0182 8.95494 9.85024 9.87091 9.35997C12.2309 8.03997 12.6009 4.66001 11.2109 2.53001Z" fill="#E0F128"/>
<path d="M163.289 47.79C158.046 61.0032 148.427 72.0167 136.039 78.99C117.639 89.18 93.509 89.16 75.439 78.19C68.9878 74.2164 63.8935 68.3795 60.8291 61.45C63.5424 58.8389 65.9236 55.9035 67.919 52.71C73.469 43.82 78.719 29.07 74.919 18.64C73.409 14.48 69.919 11.39 65.269 11.47C59.059 11.58 55.0191 16.75 52.8291 22C47.8291 33.88 49.059 47.83 53.409 59.72C50.4038 62.0854 47.0237 63.9309 43.409 65.18C32.599 68.88 20.129 66.42 12.409 57.62C3.98901 47.97 5.84906 33.92 7.33906 22.23C7.84906 18.29 1.63899 18.32 1.13899 22.23C-0.521008 35.3 -1.76096 49.88 7.05904 60.84C14.399 69.98 26.4991 74.32 37.9991 72.78C44.4812 71.8675 50.637 69.3666 55.919 65.5C67.459 87.57 94.339 95.75 118.409 91.63C136.879 88.46 153.079 76.31 163.249 60.56L163.289 47.79ZM57.5091 52C56.0925 46.5946 55.5656 40.9947 55.9491 35.42C56.3591 30.15 57.7791 21.32 62.8291 18.42C68.9691 14.94 69.919 23.22 69.689 27.19C69.3042 32.9787 67.8957 38.6532 65.529 43.95C63.7378 47.9881 61.329 51.7228 58.389 55.02C58.069 54.05 57.7791 53.04 57.5091 52Z" fill="#E0F128"/>
</g>
<defs>
<clipPath id="clip0_1706_2356">
<rect width="163.29" height="92.66" fill="white"/>
</clipPath>
</defs>
</svg>