<svg xmlns="http://www.w3.org/2000/svg" width="74" height="172" viewBox="0 0 74 172" fill="none">
<path d="M28.9422 106.501L30.0716 107.396L30.5117 105.996C32.0874 100.984 35.0617 96.0738 38.9019 93.1431C42.6819 90.2584 47.3016 89.2731 52.4627 92.0114C56.6106 94.2242 59.7868 98.4922 59.101 103.257L59.0998 103.266C58.3811 108.612 53.3481 112.329 48.3056 113.835C43.3737 115.264 38.113 114.885 33.4111 112.756L32.1342 112.178L32.0015 113.596C31.3459 120.599 32.2165 127.665 34.5482 134.271C40.286 150.978 54.3175 164.177 71.2103 167.544L71.2124 167.544C71.7184 167.644 71.9774 167.893 72.1152 168.164C72.2677 168.465 72.3108 168.878 72.2039 169.313C71.9859 170.2 71.3006 170.783 70.3873 170.603C45.0223 165.577 25.0101 137.956 29.2633 111.165L29.3605 110.553L28.8644 110.198C24.2146 106.875 20.5072 102.316 18.1322 96.9946C14.1008 87.8969 12.9427 77.7119 14.821 67.8942L14.9475 67.2329L14.3931 66.8717C7.43876 62.3414 2.6869 53.9226 1.70601 45.3633C0.762248 37.078 2.74185 29.8278 5.85716 22.8268C7.41763 19.32 9.25672 15.8893 11.1536 12.419C11.3874 11.9913 11.6221 11.5629 11.8572 11.1337C13.524 8.09155 15.2129 5.00897 16.7484 1.8484C16.9882 1.35985 17.2939 1.17433 17.5681 1.11092C17.875 1.03995 18.2608 1.0979 18.6337 1.31256C19.3899 1.74785 19.7823 2.59829 19.3465 3.49896C17.9691 6.32913 16.418 9.08972 14.8397 11.8683C14.7072 12.1016 14.5744 12.3352 14.4415 12.5689C12.9971 15.1095 11.5405 17.6715 10.2095 20.2849C7.29957 25.9987 4.94783 32.0364 4.5384 38.907C3.97201 48.0103 7.41726 57.9934 14.7178 63.3589L15.7866 64.1445L16.2455 62.8734C17.169 60.3154 18.4228 57.9004 19.9717 55.6943L19.9717 55.6943L19.9767 55.6871C23.4729 50.6162 28.7275 47.1588 34.6289 46.0372C37.0626 45.6475 39.4704 45.7897 41.3049 46.6677C43.0788 47.5167 44.3998 49.0871 44.6955 51.8214L44.6963 51.829C45.3382 57.3716 42.5756 62.1634 38.326 65.5046C34.0621 68.8571 28.4271 70.6368 23.6359 70.1764C22.026 70.0159 20.439 69.6606 18.9072 69.1176L17.7775 68.717L17.5825 69.9201C17.33 71.4772 17.1643 73.0479 17.0858 74.6244L17.0857 74.628C16.5809 85.5316 19.6081 98.1418 27.9903 105.715L27.9952 105.72C28.3063 105.997 28.6313 106.255 28.9311 106.492L28.9422 106.501ZM21.83 58.3602L21.83 58.3601L21.8252 58.3675C20.5664 60.3339 19.5706 62.467 18.8644 64.7084L18.5795 65.6125L19.4503 65.9412C20.145 66.2035 20.8528 66.4273 21.5707 66.6119L21.5805 66.6144L21.5904 66.6168C23.9154 67.1632 26.3256 67.2088 28.6712 66.7495C31.0149 66.2905 33.2426 65.3374 35.2158 63.95C37.266 62.5447 38.968 60.6627 40.1875 58.4568L40.1912 58.45L40.1949 58.4431C40.2428 58.3533 40.3015 58.2467 40.3673 58.1272C40.5885 57.7254 40.8902 57.1777 41.1313 56.6317C41.4281 55.9597 41.7625 55.0237 41.6146 54.1603L41.6108 54.1379L41.6059 54.1157C41.3303 52.8524 40.7043 51.6985 39.8025 50.7961C38.9004 49.8936 37.7596 49.2805 36.518 49.0375L36.4564 49.0254L36.3936 49.0213C33.4547 48.8299 30.4847 50.1581 27.971 51.9679C25.442 53.7888 23.2473 56.1871 21.83 58.3602ZM42.9831 111.45L42.9847 111.45C45.4909 111.397 49.0824 110.554 51.8851 108.837C53.2936 107.973 54.563 106.853 55.3696 105.437C56.1907 103.996 56.499 102.305 56.0513 100.409L56.0509 100.408C55.3939 97.646 53.2264 95.6801 50.7979 94.613C48.3747 93.5481 45.4966 93.2876 43.1881 94.1437L43.1859 94.1445C40.3302 95.2108 38.1617 97.3409 36.547 99.8079C34.9329 102.274 33.8363 105.128 33.1328 107.755L33.1302 107.765L33.0102 108.233L32.8059 109.028L33.5324 109.379C36.4874 110.804 39.7195 111.513 42.9831 111.45Z" fill="#E0F128" stroke="#E0F128" stroke-width="2"/>
</svg>